<svg xmlns="http://www.w3.org/2000/svg" width="32" height="32" viewBox="0 0 32 32">
    <g fill="none" fill-rule="evenodd">
        <path fill="#646464" d="M25.155 2.667c.809 0 1.584.334 2.149.93l3.844 4.05c.546.576.852 1.349.852 2.153v16.45c0 1.702-1.343 3.083-3 3.083H3c-1.657 0-3-1.38-3-3.084V5.751c0-1.703 1.343-3.084 3-3.084zm.001 2.056H3c-.552 0-1 .46-1 1.028v20.498c0 .568.448 1.028 1 1.028h26c.552 0 1-.46 1-1.028V9.8c0-.268-.102-.525-.284-.717l-3.843-4.05c-.189-.199-.447-.31-.717-.31zm-4.964 7.542c.701.008 1.353.37 1.744.971l5.83 8.986c.306.472.182 1.11-.278 1.425-.46.315-1.08.188-1.387-.284l-5.828-8.985c-.023-.035-.062-.057-.103-.057-.041 0-.08.02-.103.054l-2.994 4.407c-.331.488-.995.585-1.446.213l-1.852-1.53c-.027-.023-.062-.033-.097-.027-.034.005-.065.025-.084.056l-3.82 5.894c-.307.473-.928.6-1.387.286-.46-.315-.584-.953-.278-1.426l3.82-5.893c.33-.51.853-.855 1.442-.949.589-.094 1.19.07 1.655.455l1.02.842 2.382-3.506c.402-.591 1.062-.94 1.764-.932zM9.44 7.605c1.933 0 3.5 1.61 3.5 3.597 0 1.988-1.567 3.599-3.5 3.599s-3.5-1.611-3.5-3.599c0-1.987 1.567-3.598 3.5-3.598zm0 2.055c-.828 0-1.5.69-1.5 1.542 0 .852.672 1.542 1.5 1.542s1.5-.69 1.5-1.542c0-.851-.672-1.542-1.5-1.542z"/>
    </g>
</svg>
