<svg xmlns="http://www.w3.org/2000/svg" width="24" height="24" viewBox="0 0 24 24">
    <g fill="none" fill-rule="evenodd">
        <g>
            <g>
                <g>
                    <g>
                        <g fill="#484848">
                            <path d="M5.25 13.5c2.9 0 5.25 2.35 5.25 5.25S8.15 24 5.25 24 0 21.65 0 18.75s2.35-5.25 5.25-5.25zm13.5 0c2.9 0 5.25 2.35 5.25 5.25S21.65 24 18.75 24s-5.25-2.35-5.25-5.25 2.35-5.25 5.25-5.25zM5.25 15c-2.071 0-3.75 1.679-3.75 3.75 0 2.071 1.679 3.75 3.75 3.75C7.321 22.5 9 20.821 9 18.75 9 16.679 7.321 15 5.25 15zm13.5 0C16.679 15 15 16.679 15 18.75c0 2.071 1.679 3.75 3.75 3.75 2.071 0 3.75-1.679 3.75-3.75 0-2.071-1.679-3.75-3.75-3.75zM5.25 0c2.9 0 5.25 2.35 5.25 5.25S8.15 10.5 5.25 10.5 0 8.15 0 5.25 2.35 0 5.25 0zm13.5 0C21.65 0 24 2.35 24 5.25s-2.35 5.25-5.25 5.25-5.25-2.35-5.25-5.25S15.85 0 18.75 0zM5.25 1.5C3.179 1.5 1.5 3.179 1.5 5.25 1.5 7.321 3.179 9 5.25 9 7.321 9 9 7.321 9 5.25 9 3.179 7.321 1.5 5.25 1.5zm13.5 0C16.679 1.5 15 3.179 15 5.25 15 7.321 16.679 9 18.75 9c2.071 0 3.75-1.679 3.75-3.75 0-2.071-1.679-3.75-3.75-3.75z" transform="translate(-211 -36) translate(32 24) translate(167) translate(12 12) translate(0 .005)"/>
                        </g>
                    </g>
                </g>
            </g>
        </g>
    </g>
</svg>
