<svg xmlns="http://www.w3.org/2000/svg" width="15" height="15" viewBox="0 0 15 15">
    <path fill="#919191" fill-rule="evenodd" d="M12.279 2.151C9.602-.523 5.263-.522 2.588 2.154c-2.676 2.677-2.676 7.015 0 9.692 2.675 2.676 7.014 2.677 9.69.003 2.674-2.68 2.674-7.018 0-9.698zm-2.16 6.723c.203.225.194.57-.02.785-.214.215-.558.225-.785.023L7.537 7.905c-.056-.055-.146-.055-.202 0L5.558 9.682c-.225.218-.583.218-.808 0-.108-.107-.168-.252-.168-.404 0-.152.06-.297.168-.404l1.777-1.777c.027-.027.042-.063.042-.1 0-.039-.015-.075-.042-.102L4.75 5.118c-.205-.225-.197-.572.018-.788.215-.215.561-.224.787-.02l1.777 1.777c.027.027.063.042.101.042.038 0 .074-.015.101-.042L9.311 4.31c.224-.223.586-.223.809 0 .223.223.223.585 0 .808L8.341 6.895c-.055.056-.055.146 0 .202l1.777 1.777z"/>
</svg>
