<svg xmlns="http://www.w3.org/2000/svg" width="101" height="125" viewBox="0 0 101 125">
    <g fill="none" fill-rule="evenodd">
        <g fill="#FF6000">
            <g>
                <g>
                    <g>
                        <g>
                            <path fill-opacity=".08" d="M64.401 15.861c17.484 7.686 28.09 25.39 26.428 44.113-1.602 18.055-14.272 33.24-31.828 38.433L59 79.951l-.01-.164-.023-.153-.04-.179-.06-.184c-.158-.413-.455-.779-.891-1.017l-.043-.024-.167-.077-30.023-12.01-.181-.063c-.428-.125-.888-.104-1.305.063L5.121 74.599C-2.521 58.32.62 39.019 13.25 25.87 26.39 12.193 46.916 8.175 64.4 15.861z" transform="translate(-220 -1622) translate(0 1466) translate(120 32) translate(0 78) translate(100 46)"/>
                            <path fill-rule="nonzero" d="M27.135 71.067l.15.052L52.33 81.137l.175.089c.41.232.667.602.773 1.008l.035.17.012.095.008.14v30.028c0 .632-.357 1.206-.915 1.487l-.132.06-25.006 10.003c-.08.031-.161.057-.245.076l-.145.027-.169.014h-.11l-.185-.017c-.086-.012-.17-.032-.252-.057l-.126-.046-25-10c-.588-.235-.988-.78-1.042-1.402L0 112.667l.001-30.065.014-.16.022-.129.036-.142.01-.03c.118-.368.366-.7.742-.915l.102-.053c.046-.023.093-.044.14-.062l24.98-9.992c.348-.139.731-.156 1.088-.052zM3.332 85.128l.001 26.41L25 120.205v-26.41L3.332 85.128zm46.668 0l-21.667 8.667v26.41L50 111.538v-26.41zm-2.62 21.92c.324.807-.03 1.717-.79 2.103l-.138.063-4.166 1.667c-.855.342-1.825-.074-2.167-.929-.323-.807.03-1.717.79-2.103l.139-.063 4.166-1.667c.855-.342 1.825.074 2.167.929zM72.788 4.252c18.488 8.285 29.703 27.368 27.946 47.55-1.757 20.184-16.101 37.04-35.743 42.006-.937.237-1.889-.331-2.126-1.268-.236-.937.331-1.889 1.268-2.126 18.197-4.6 31.486-20.216 33.114-38.915 1.628-18.698-8.762-36.377-25.89-44.053-17.128-7.675-37.238-3.663-50.11 9.997S5.563 51.415 14.241 68.058c.446.857.114 1.914-.743 2.36-.857.447-1.914.115-2.36-.742-9.368-17.964-6.333-39.89 7.56-54.634C32.594.298 54.3-4.032 72.789 4.252zm-57.371 74.71l-9.262 3.705 20.512 8.204 9.262-3.704-20.512-8.205zm11.25-4.5l-6.762 2.705 20.512 8.205 6.762-2.705-20.512-8.205zm22.5-57.712c.868 0 1.594.633 1.728 1.47l.018.15.005.14v24.12l.476.068c3.53.588 6.317 3.373 6.908 6.902l.07.483H70l.151.007c.8.068 1.45.675 1.577 1.463l.017.15.005.14-.006.15c-.07.791-.676 1.441-1.463 1.568l-.15.018-.14.005H58.015l-.059.168-.093.257c-1.233 3.223-4.34 5.408-7.863 5.408-4.648 0-8.417-3.769-8.417-8.417 0-3.523 2.185-6.629 5.406-7.862l.425-.152.003-24.486.005-.144c.073-.899.826-1.606 1.745-1.606zm.84 29.333l-.186.004-.18.01-.225.02-.19.027-.27.05-.269.067-.211.064-.247.088-.188.077-.18.082-.17.087-.2.112-.214.136-.083.056-.193.141c-1.197.923-1.917 2.35-1.917 3.896 0 2.715 2.202 4.917 4.917 4.917 1.575 0 3.023-.747 3.943-1.979l.14-.198.09-.14.112-.188.063-.115.1-.198.05-.112.081-.193.078-.215.067-.212.065-.251.053-.258.035-.233.022-.21.013-.207.005-.208-.012-.334-.024-.259-.03-.208c-.022-.137-.05-.27-.083-.403-.448-1.78-1.86-3.164-3.64-3.582l-.223-.048-.144-.025-.054-.005h.015l-.298-.035-.154-.01-.263-.008z" transform="translate(-220 -1622) translate(0 1466) translate(120 32) translate(0 78) translate(100 46)"/>
                        </g>
                    </g>
                </g>
            </g>
        </g>
    </g>
</svg>
