<svg xmlns="http://www.w3.org/2000/svg" width="120" height="123" viewBox="0 0 120 123">
    <g fill="none" fill-rule="evenodd">
        <g>
            <g>
                <g>
                    <g>
                        <g transform="translate(-511 -1621) translate(0 1466) translate(120 32) translate(300 78) translate(91 47)">
                            <circle cx="54" cy="64" r="54" fill="#FF6000" opacity=".08"/>
                            <path stroke="#FF6000" stroke-linecap="round" stroke-linejoin="round" stroke-width="3" d="M49.78 110.844C26.346 106.328 7.936 86.57 6.195 61.673 4.118 31.973 26.552 6.209 56.303 4.129c29.75-2.08 55.552 20.31 57.629 50.01.794 11.362-1.998 22.147-7.415 31.251"/>
                            <path stroke="#FF6000" stroke-linecap="round" stroke-linejoin="round" stroke-width="3" d="M52.156 69.824c-3.384-2.382-5.699-6.174-6.007-10.577-.548-7.845 5.483-14.658 13.472-15.216 7.988-.559 14.91 5.348 15.458 13.193.094 1.35-.006 2.669-.278 3.93"/>
                            <path fill="#FFF" fill-rule="nonzero" d="M95 102.54V87.68c0-1.52-1.246-2.756-2.78-2.756-1.532 0-2.779 1.236-2.779 2.757v2.547c0 1.29-1.054 2.336-2.354 2.336s-2.354-1.046-2.354-2.336v-7.641c0-1.521-1.247-2.758-2.78-2.758-1.531 0-2.778 1.238-2.778 2.758v5.094c0 1.29-1.054 2.336-2.354 2.336s-2.354-1.046-2.354-2.336V77.493c0-1.521-1.246-2.758-2.779-2.758s-2.78 1.238-2.78 2.758v10.186c0 1.29-1.053 2.336-2.353 2.336-1.3 0-2.354-1.046-2.354-2.336V64.76c0-1.522-1.248-2.759-2.78-2.759-1.532 0-2.778 1.238-2.778 2.758v34.033c0 .944-.574 1.796-1.454 2.157-.878.362-1.891.163-2.565-.506l-6.881-6.829c-.542-.537-1.254-.806-1.965-.806-.712 0-1.424.269-1.966.806-1.083 1.076-1.083 2.826 0 3.9l17.841 17.705c3.69 3.729 8.621 5.782 13.885 5.782 10.296 0 18.83-7.983 19.426-18.172.006-.098.018-.194.035-.288z"/>
                            <g fill-rule="nonzero" stroke="#FF6000" stroke-width="3">
                                <path d="M18.421-1.5c1.179 0 2.247.476 3.021 1.244.778.772 1.259 1.839 1.259 3.014h0V25.68c0 .23.094.437.246.587.155.154.37.249.608.249.237 0 .452-.095.608-.249.151-.15.246-.357.246-.587h0V15.493c0-1.175.48-2.242 1.258-3.014.774-.768 1.842-1.244 3.021-1.244 1.179 0 2.247.476 3.021 1.244.778.772 1.258 1.838 1.258 3.014h0V25.68c0 .23.095.437.246.587.156.154.371.249.608.249.238 0 .453-.095.608-.25.152-.15.246-.357.246-.586h0v-5.094c0-1.175.48-2.242 1.258-3.014.774-.768 1.843-1.244 3.02-1.244 1.18 0 2.248.476 3.022 1.244.778.772 1.258 1.838 1.258 3.014h0v7.64c0 .23.095.438.246.588.156.154.371.249.608.249s.453-.095.608-.25c.152-.15.246-.357.246-.586h0V25.68c0-1.175.48-2.242 1.259-3.014.774-.768 1.842-1.243 3.02-1.243 1.18 0 2.248.475 3.021 1.243.779.772 1.259 1.839 1.259 3.014h0v14.904c-.329 5.64-2.788 10.61-6.545 14.174-3.773 3.579-8.856 5.741-14.417 5.741-5.668 0-10.977-2.212-14.941-6.217h0L-.244 36.578c-.838-.83-1.256-1.922-1.256-3.014 0-1.092.418-2.184 1.256-3.015.833-.827 1.926-1.242 3.022-1.242 1.094 0 2.188.415 3.021 1.242h0l6.882 6.828c.603.265.776.25.938.184h0l.524-34.803c0-1.175.48-2.242 1.258-3.014.774-.768 1.842-1.244 3.02-1.244z" transform="translate(45 57)"/>
                            </g>
                        </g>
                    </g>
                </g>
            </g>
        </g>
    </g>
</svg>
