<svg xmlns="http://www.w3.org/2000/svg" width="149" height="148" viewBox="0 0 149 148">
    <g fill="none" fill-rule="evenodd">
        <g fill="#FF6000">
            <g>
                <g>
                    <g>
                        <g transform="translate(-796 -1609) translate(0 1466) translate(120 32) translate(600 78) translate(76 33)">
                            <circle cx="67" cy="77" r="59" opacity=".08"/>
                            <path fill-rule="nonzero" d="M60.293 128.13c.801.213 1.277 1.035 1.064 1.836-.213.8-1.035 1.276-1.835 1.063-25.173-6.701-43.006-29.553-43.006-55.938 0-31.971 25.961-57.888 57.985-57.888 32.023 0 57.984 25.917 57.984 57.888 0 11.93-3.624 23.324-10.285 32.924-.472.68-1.407.85-2.087.377-.68-.472-.85-1.407-.378-2.087 6.315-9.102 9.75-19.9 9.75-31.214 0-30.313-24.617-54.888-54.984-54.888-30.368 0-54.985 24.575-54.985 54.888 0 25.017 16.91 46.685 40.777 53.04z" transform="rotate(-160 74.5 74.141)"/>
                            <g fill-rule="nonzero">
                                <path d="M0 0H2V2H0zM2 0H4V2H2zM4 0H6V2H4zM6 0H8V2H6zM8 0H10V2H8zM10 0H12V2H10zM12 0H14V2H12zM16 0H18V2H16zM20 0H22V2H20zM24 0H26V2H24zM26 0H28V2H26zM32 0H34V2H32zM36 0H38V2H36zM38 0H40V2H38zM40 0H42V2H40zM42 0H44V2H42zM44 0H46V2H44zM46 0H48V2H46zM48 0H50V2H48zM0 2H2V4H0zM12 2H14V4H12zM18 2H20V4H18zM20 2H22V4H20zM22 2H24V4H22zM24 2H26V4H24zM28 2H30V4H28zM36 2H38V4H36zM48 2H50V4H48zM0 4H2V6H0zM4 4H6V6H4zM6 4H8V6H6zM8 4H10V6H8zM12 4H14V6H12zM16 4H18V6H16zM18 4H20V6H18zM20 4H22V6H20zM26 4H28V6H26zM28 4H30V6H28zM36 4H38V6H36zM40 4H42V6H40zM42 4H44V6H42zM44 4H46V6H44zM48 4H50V6H48zM0 6H2V8H0zM4 6H6V8H4zM6 6H8V8H6zM8 6H10V8H8zM12 6H14V8H12zM16 6H18V8H16zM18 6H20V8H18zM20 6H22V8H20zM24 6H26V8H24zM26 6H28V8H26zM28 6H30V8H28zM30 6H32V8H30zM36 6H38V8H36zM40 6H42V8H40zM42 6H44V8H42zM44 6H46V8H44zM48 6H50V8H48zM0 8H2V10H0zM4 8H6V10H4zM6 8H8V10H6zM8 8H10V10H8zM12 8H14V10H12zM16 8H18V10H16zM22 8H24V10H22zM24 8H26V10H24zM30 8H32V10H30zM32 8H34V10H32zM36 8H38V10H36zM40 8H42V10H40zM42 8H44V10H42zM44 8H46V10H44zM48 8H50V10H48zM0 10H2V12H0zM12 10H14V12H12zM20 10H22V12H20zM22 10H24V12H22zM32 10H34V12H32zM36 10H38V12H36zM48 10H50V12H48zM0 12H2V14H0zM2 12H4V14H2zM4 12H6V14H4zM6 12H8V14H6zM8 12H10V14H8zM10 12H12V14H10zM12 12H14V14H12zM16 12H18V14H16zM20 12H22V14H20zM24 12H26V14H24zM28 12H30V14H28zM32 12H34V14H32zM36 12H38V14H36zM38 12H40V14H38zM40 12H42V14H40zM42 12H44V14H42zM44 12H46V14H44zM46 12H48V14H46zM48 12H50V14H48zM20 14H22V16H20zM24 14H26V16H24zM28 14H30V16H28zM30 14H32V16H30zM32 14H34V16H32zM0 16H2V18H0zM2 16H4V18H2zM4 16H6V18H4zM6 16H8V18H6zM12 16H14V18H12zM16 16H18V18H16zM20 16H22V18H20zM22 16H24V18H22zM24 16H26V18H24zM26 16H28V18H26zM30 16H32V18H30zM32 16H34V18H32zM34 16H36V18H34zM40 16H42V18H40zM42 16H44V18H42zM44 16H46V18H44zM48 16H50V18H48zM2 18H4V20H2zM8 18H10V20H8zM20 18H22V20H20zM24 18H26V20H24zM26 18H28V20H26zM32 18H34V20H32zM34 18H36V20H34zM38 18H40V20H38zM46 18H48V20H46zM0 20H2V22H0zM2 20H4V22H2zM8 20H10V22H8zM10 20H12V22H10zM12 20H14V22H12zM14 20H16V22H14zM18 20H20V22H18zM20 20H22V22H20zM22 20H24V22H22zM24 20H26V22H24zM26 20H28V22H26zM32 20H34V22H32zM34 20H36V22H34zM40 20H42V22H40zM4 22H6V24H4zM6 22H8V24H6zM8 22H10V24H8zM18 22H20V24H18zM20 22H22V24H20zM32 22H34V24H32zM34 22H36V24H34zM36 22H38V24H36zM38 22H40V24H38zM42 22H44V24H42zM44 22H46V24H44zM0 24H2V26H0zM4 24H6V26H4zM10 24H12V26H10zM12 24H14V26H12zM16 24H18V26H16zM18 24H20V26H18zM20 24H22V26H20zM24 24H26V26H24zM28 24H30V26H28zM36 24H38V26H36zM38 24H40V26H38zM40 24H42V26H40zM44 24H46V26H44zM46 24H48V26H46zM48 24H50V26H48zM6 26H8V28H6zM10 26H12V28H10zM16 26H18V28H16zM22 26H24V28H22zM24 26H26V28H24zM28 26H30V28H28zM30 26H32V28H30zM32 26H34V28H32zM34 26H36V28H34zM36 26H38V28H36zM38 26H40V28H38zM40 26H42V28H40zM48 26H50V28H48zM2 28H4V30H2zM6 28H8V30H6zM8 28H10V30H8zM10 28H12V30H10zM12 28H14V30H12zM18 28H20V30H18zM22 28H24V30H22zM26 28H28V30H26zM34 28H36V30H34zM36 28H38V30H36zM38 28H40V30H38zM44 28H46V30H44zM46 28H48V30H46zM0 30H2V32H0zM4 30H6V32H4zM8 30H10V32H8zM16 30H18V32H16zM22 30H24V32H22zM28 30H30V32H28zM32 30H34V32H32zM40 30H42V32H40zM42 30H44V32H42zM48 30H50V32H48zM8 32H10V34H8zM10 32H12V34H10zM12 32H14V34H12zM14 32H16V34H14zM16 32H18V34H16zM24 32H26V34H24zM28 32H30V34H28zM30 32H32V34H30zM32 32H34V34H32zM34 32H36V34H34zM36 32H38V34H36zM38 32H40V34H38zM40 32H42V34H40zM42 32H44V34H42zM44 32H46V34H44zM46 32H48V34H46zM48 32H50V34H48zM16 34H18V36H16zM28 34H30V36H28zM32 34H34V36H32zM40 34H42V36H40zM48 34H50V36H48zM0 36H2V38H0zM2 36H4V38H2zM4 36H6V38H4zM6 36H8V38H6zM8 36H10V38H8zM10 36H12V38H10zM12 36H14V38H12zM26 36H28V38H26zM28 36H30V38H28zM32 36H34V38H32zM36 36H38V38H36zM40 36H42V38H40zM42 36H44V38H42zM44 36H46V38H44zM46 36H48V38H46zM48 36H50V38H48zM0 38H2V40H0zM12 38H14V40H12zM18 38H20V40H18zM22 38H24V40H22zM26 38H28V40H26zM28 38H30V40H28zM32 38H34V40H32zM40 38H42V40H40zM48 38H50V40H48zM0 40H2V42H0zM4 40H6V42H4zM6 40H8V42H6zM8 40H10V42H8zM12 40H14V42H12zM18 40H20V42H18zM20 40H22V42H20zM26 40H28V42H26zM28 40H30V42H28zM32 40H34V42H32zM34 40H36V42H34zM36 40H38V42H36zM38 40H40V42H38zM40 40H42V42H40zM0 42H2V44H0zM4 42H6V44H4zM6 42H8V44H6zM8 42H10V44H8zM12 42H14V44H12zM16 42H18V44H16zM18 42H20V44H18zM34 42H36V44H34zM36 42H38V44H36zM40 42H42V44H40zM44 42H46V44H44zM46 42H48V44H46zM48 42H50V44H48zM0 44H2V46H0zM4 44H6V46H4zM6 44H8V46H6zM8 44H10V46H8zM12 44H14V46H12zM16 44H18V46H16zM18 44H20V46H18zM20 44H22V46H20zM28 44H30V46H28zM30 44H32V46H30zM32 44H34V46H32zM34 44H36V46H34zM36 44H38V46H36zM38 44H40V46H38zM40 44H42V46H40zM42 44H44V46H42zM44 44H46V46H44zM46 44H48V46H46zM0 46H2V48H0zM12 46H14V48H12zM16 46H18V48H16zM18 46H20V48H18zM20 46H22V48H20zM22 46H24V48H22zM24 46H26V48H24zM26 46H28V48H26zM28 46H30V48H28zM36 46H38V48H36zM40 46H42V48H40zM44 46H46V48H44zM0 48H2V50H0zM2 48H4V50H2zM4 48H6V50H4zM6 48H8V50H6zM8 48H10V50H8zM10 48H12V50H10zM12 48H14V50H12zM16 48H18V50H16zM18 48H20V50H18zM22 48H24V50H22zM34 48H36V50H34zM36 48H38V50H36zM38 48H40V50H38zM40 48H42V50H40zM42 48H44V50H42zM44 48H46V50H44zM46 48H48V50H46zM48 48H50V50H48z" transform="translate(50 50)"/>
                            </g>
                        </g>
                    </g>
                </g>
            </g>
        </g>
    </g>
</svg>
