<svg xmlns="http://www.w3.org/2000/svg" width="118" height="117" viewBox="0 0 118 117">
    <g fill="none" fill-rule="evenodd">
        <g>
            <g>
                <g>
                    <g>
                        <g>
                            <path fill="#FF6000" d="M57 7c29.823 0 54 24.177 54 54s-24.177 54-54 54c-20.15 0-37.722-11.037-47.002-27.395L10 54H3.45C6.882 27.484 29.549 7 57 7zM12.987 59.619v24.603l33.628 9.79 32.522-3.844c1.615 0 2.928-1.314 2.927-2.93 0-1.426-1.006-2.627-2.403-2.881l-25.759-.181-21.658-10.773c-.915-.455-1.38-1.499-1.107-2.484.308-1.106 1.424-1.769 2.542-1.508l18.886 4.388c1.013.234 2.052-.285 2.47-1.239.47-1.073.011-2.31-1.046-2.815-14.805-7.083-25.108-11.414-27.561-11.585-3.806-.263-11.204 1.041-13.441 1.459z" opacity=".08" transform="translate(-1112 -1624) translate(0 1466) translate(120 32) translate(900 78) translate(92 50)"/>
                            <path stroke="#FF6000" stroke-linecap="round" stroke-linejoin="round" stroke-width="3" d="M10 40.049C16.14 16.987 37.135 0 62.092 0 91.864 0 116 24.177 116 54s-24.136 54-53.908 54c-11.39 0-21.954-3.538-30.658-9.577" transform="translate(-1112 -1624) translate(0 1466) translate(120 32) translate(900 78) translate(92 50)"/>
                            <path fill="#FF6000" d="M14 87V52H3v35h11zm3 3H0V49h17v41zm66.137-1.832c1.615 0 2.928-1.314 2.927-2.93 0-1.426-1.006-2.627-2.403-2.881l-25.759-.181-21.658-10.773c-.915-.455-1.38-1.499-1.107-2.484.308-1.106 1.424-1.769 2.542-1.508l18.886 4.388c1.013.234 2.052-.285 2.47-1.239.47-1.073.011-2.31-1.046-2.815-14.805-7.083-25.108-11.414-27.561-11.585-3.806-.263-11.204 1.041-13.441 1.459v24.603l33.628 9.79 32.522-3.844zm-32.775 6.895l-36.375-10.59V55.128l2.449-.458c5.492-1.026 10.839-1.735 14.2-1.503 3.034.212 13.266 4.513 28.646 11.871 2.518 1.203 3.62 4.17 2.5 6.726-.996 2.276-3.473 3.517-5.896 2.957l-11.7-2.718 14.43 7.178 25.326.178.256.046c2.824.514 4.866 2.959 4.866 5.831.002 3.204-2.543 5.82-5.72 5.928l-32.982 3.899zM83.948 58.947l.657-2.722 10.626 2.564-2.399 10.663-2.731-.615 1.312-5.834c-3.767 2.679-8.225 4.11-12.868 4.11-.33 0-.658-.007-.99-.021-5.957-.258-11.46-2.822-15.492-7.217-8.322-9.075-7.709-23.228 1.367-31.55 9.075-8.322 23.226-7.71 31.549 1.366l.27.295-2.065 1.892-.27-.295c-7.276-7.936-19.654-8.471-27.593-1.194-7.937 7.279-8.473 19.657-1.194 27.594 3.527 3.845 8.337 6.086 13.55 6.311 4.497.198 8.869-1.16 12.475-3.849l-6.204-1.498z" transform="translate(-1112 -1624) translate(0 1466) translate(120 32) translate(900 78) translate(92 50)"/>
                            <path fill="#FF6000" d="M77.674 42.452v9.922c1.1 0 2.074-.183 2.92-.549.845-.365 1.554-.88 2.127-1.545.572-.665 1.006-1.46 1.3-2.385.296-.925.443-1.948.443-3.067H87c0 1.618-.217 3.058-.65 4.322-.434 1.263-1.105 2.326-2.011 3.19-.907.865-2.06 1.524-3.462 1.979-1.402.454-3.07.681-5.005.681h-.901V43.615L71 45.277v-2.16l3.97-1.663v-2.426L71 40.69v-2.144l3.97-1.679V31h2.704v4.72l6.123-2.593v2.144l-6.123 2.593v2.443l6.123-2.609v2.16l-6.123 2.594z" transform="translate(-1112 -1624) translate(0 1466) translate(120 32) translate(900 78) translate(92 50)"/>
                        </g>
                    </g>
                </g>
            </g>
        </g>
    </g>
</svg>
