<svg xmlns="http://www.w3.org/2000/svg" width="142" height="24" viewBox="0 0 142 24">
    <g fill="none" fill-rule="evenodd">
        <g fill="#FF6000">
            <g>
                <g>
                    <path d="M36.059 4.808c1.625 0 3.002.596 4.13 1.786 1.128 1.192 1.692 2.94 1.692 5.247 0 2.432-.551 4.287-1.653 5.562-1.103 1.276-2.523 1.914-4.259 1.914-1.107 0-2.026-.275-2.758-.824-.4-.304-.792-.748-1.175-1.33V24h-3.578V5.112h3.464v2.04c.391-.6.808-1.073 1.251-1.419.809-.617 1.77-.925 2.886-.925zm-15.666-.063c1.204 0 2.288.216 3.253.647.964.431 1.761 1.112 2.39 2.043.566.82.933 1.773 1.101 2.856.097.634.137 1.548.12 2.74H17.183c.057 1.386.539 2.358 1.447 2.915.552.347 1.216.52 1.993.52.824 0 1.493-.212 2.008-.634.28-.228.529-.545.744-.95h3.692c-.098.82-.545 1.651-1.34 2.496-1.24 1.343-2.974 2.015-5.204 2.015-1.84 0-3.464-.567-4.87-1.7-1.407-1.133-2.11-2.976-2.11-5.53 0-2.392.634-4.227 1.904-5.503 1.27-1.277 2.919-1.915 4.945-1.915zm28.335-.026c1.73 0 3.139.345 4.228 1.033 1.089.689 1.714 1.877 1.875 3.567h-3.616c-.05-.465-.182-.832-.394-1.103-.399-.49-1.077-.734-2.036-.734-.788 0-1.35.122-1.685.367-.335.245-.503.532-.503.862 0 .414.178.714.535.9.356.194 1.614.527 3.775 1 1.44.339 2.52.85 3.239 1.534.71.692 1.066 1.558 1.066 2.597 0 1.369-.51 2.486-1.532 3.352-1.022.865-2.6 1.299-4.735 1.299-2.179 0-3.787-.459-4.825-1.375-1.038-.917-1.557-2.085-1.557-3.504h3.666c.077.642.243 1.098.498 1.369.45.481 1.283.722 2.498.722.714 0 1.281-.106 1.702-.317.42-.21.63-.528.63-.95 0-.406-.168-.714-.507-.925-.34-.211-1.6-.575-3.783-1.09-1.571-.388-2.679-.874-3.321-1.457-.643-.574-.964-1.402-.964-2.484 0-1.275.502-2.371 1.506-3.288 1.004-.916 2.418-1.375 4.24-1.375zm58.211.108c1.518 0 2.865.3 4.043.898 1.179.599 1.768 1.728 1.768 3.388v6.537c.002.743.01 2.731.025 3.286h-3.507s.01-.47.011-.913v-.286c0-.18-.004-.334-.01-.418-.502.54-1.079 1-1.733 1.379-.78.446-1.663.67-2.648.67-1.257 0-2.295-.356-3.114-1.069-.819-.712-1.228-1.721-1.228-3.028 0-1.694.659-2.92 1.976-3.68.723-.412 1.786-.707 3.189-.884l1.237-.152c.672-.084 1.152-.19 1.44-.316.52-.22.78-.56.78-1.024 0-.565-.2-.955-.598-1.17-.398-.215-.981-.322-1.751-.322-.865 0-1.476.21-1.836.632-.256.312-.427.733-.513 1.264h-3.481c.076-1.205.415-2.195 1.017-2.971.958-1.214 2.602-1.821 4.933-1.821zm28.654 0c1.517 0 2.865.3 4.043.898 1.178.599 1.767 1.728 1.767 3.388v6.69c.003.833.011 2.613.026 3.133h-3.507s.025-1.305 0-1.617c-.501.54-1.078 1-1.732 1.379-.781.446-1.664.67-2.649.67-1.256 0-2.294-.356-3.113-1.069-.82-.712-1.229-1.721-1.229-3.028 0-1.694.66-2.92 1.977-3.68.722-.412 1.786-.707 3.188-.884l1.237-.152c.672-.084 1.152-.19 1.441-.316.519-.22.778-.56.778-1.024 0-.565-.198-.955-.596-1.17-.398-.215-.982-.322-1.752-.322-.864 0-1.476.21-1.835.632-.257.312-.428.733-.513 1.264h-3.482c.076-1.205.415-2.195 1.017-2.971.958-1.214 2.603-1.821 4.934-1.821zM127.556.031v18.893h-3.515v-1.913c-.515.819-1.103 1.415-1.763 1.786-.66.372-1.48.558-2.461.558-1.616 0-2.975-.653-4.08-1.958-1.103-1.305-1.655-2.98-1.655-5.024 0-2.357.544-4.211 1.63-5.563 1.087-1.351 2.54-2.027 4.359-2.027.837 0 1.58.184 2.233.55.65.368 1.18.878 1.585 1.528V.031h3.667zm-61.791 0v6.88c.46-.641.966-1.131 1.52-1.47.655-.422 1.49-.633 2.502-.633 1.83 0 3.262.655 4.297 1.964 1.034 1.31 1.551 2.999 1.551 5.069 0 2.146-.51 3.924-1.53 5.334-1.02 1.411-2.444 2.117-4.272 2.117-1.148 0-2.07-.229-2.767-.685-.417-.27-.868-.743-1.352-1.42v1.737H62.15V.031h3.616zm14.98 5.081v8.325c0 .786.093 1.377.278 1.774.328.702.971 1.052 1.93 1.052 1.23 0 2.071-.498 2.526-1.495.235-.54.353-1.255.353-2.142V5.112H89.5v13.812h-3.514v-1.951c-.034.042-.119.169-.253.38-.135.211-.295.397-.481.557-.565.507-1.111.854-1.639 1.04-.527.185-1.145.278-1.853.278-2.04 0-3.416-.735-4.124-2.205-.397-.81-.595-2.006-.595-3.586V5.112h3.705zM3.615.07V6.29c.67-.66 1.004-.874 1.674-1.14.702-.279 1.548-.406 2.306-.406.85 0 1.623.148 2.318.444.695.295 1.265.748 1.712 1.356.379.517.61 1.047.694 1.592.085.546.127 1.436.127 2.67v8.117H8.754v-8.41c0-.745-.126-1.345-.378-1.802-.327-.643-.949-.964-1.864-.964-.949 0-1.668.319-2.16.958-.49.638-.736 1.55-.736 2.733v7.485H0V.069h3.616zm56.698 5.043v13.812h-3.666V5.112h3.666zm39-.33c.067 0 .124.003.17.007.047.005.15.01.312.019v3.7c-.229-.025-.432-.042-.61-.05-.177-.009-.32-.013-.43-.013-1.456 0-2.432.473-2.932 1.42-.279.531-.418 1.35-.418 2.457v6.602h-3.641V5.112h3.45V7.52c.559-.921 1.045-1.55 1.46-1.888.676-.566 1.556-.85 2.639-.85zm9.841 7.455c-.23.143-.464.258-.7.347-.235.088-.558.17-.968.247l-.822.151c-.77.135-1.322.3-1.658.494-.568.328-.852.838-.852 1.53 0 .615.173 1.06.52 1.334.347.274.77.41 1.267.41.788 0 1.514-.227 2.179-.682.664-.456 1.008-1.286 1.034-2.491v-1.34zm28.653 0c-.23.143-.464.258-.699.347-.236.088-.558.17-.969.247l-.821.151c-.77.135-1.322.3-1.658.494-.569.328-.853.838-.853 1.53 0 .615.173 1.06.521 1.334.347.274.77.41 1.266.41.789 0 1.515-.227 2.179-.682.664-.456 1.009-1.286 1.034-2.491v-1.34zM68.772 7.963c-1.322 0-2.23.596-2.725 1.787-.256.634-.384 1.453-.384 2.458 0 1.183.265 2.163.794 2.94.528.777 1.334 1.166 2.417 1.166.938 0 1.667-.376 2.187-1.128.52-.752.78-1.74.78-2.965 0-.98-.127-1.791-.383-2.433-.486-1.216-1.381-1.825-2.686-1.825zm52.11-.025c-1.057 0-1.833.399-2.327 1.197-.495.799-.743 1.79-.743 2.972 0 1.275.252 2.295.755 3.06.503.765 1.267 1.147 2.29 1.147 1.024 0 1.802-.38 2.334-1.14.533-.761.8-1.745.8-2.953 0-1.69-.427-2.898-1.281-3.624-.525-.44-1.134-.659-1.828-.659zm-85.858.025c-1.325 0-2.235.62-2.73 1.863-.257.659-.385 1.495-.385 2.509 0 1.605.431 2.733 1.294 3.383.512.38 1.12.57 1.82.57 1.017 0 1.793-.388 2.327-1.166.534-.777.801-1.812.801-3.104 0-1.064-.246-2.006-.737-2.826-.491-.819-1.288-1.229-2.39-1.229zm-14.63-.24c-.927 0-1.647.262-2.157.789-.512.526-.833 1.238-.964 2.137h6.23c-.066-.958-.387-1.686-.964-2.182-.576-.497-1.29-.745-2.144-.745zM58.423 0c1.1 0 1.99.89 1.99 1.988 0 1.099-.89 1.989-1.99 1.989s-1.991-.89-1.991-1.989C56.43.89 57.322 0 58.42 0z" transform="translate(-32 -36) translate(32 24) translate(0 12)"/>
                </g>
            </g>
        </g>
    </g>
</svg>
