<svg xmlns="http://www.w3.org/2000/svg" width="12" height="12" viewBox="0 0 12 12">
    <g fill="none" fill-rule="evenodd">
        <path fill="#F5CF3F" d="M6 0C2.686 0 0 2.686 0 6s2.686 6 6 6 6-2.686 6-6C11.996 2.688 9.312.004 6 0zm.125 2.5c.414 0 .75.336.75.75s-.336.75-.75.75-.75-.336-.75-.75.336-.75.75-.75zM7.25 9.25h-2c-.276 0-.5-.224-.5-.5s.224-.5.5-.5h.375c.069 0 .125-.056.125-.125v-2.25c0-.069-.056-.125-.125-.125H5.25c-.276 0-.5-.224-.5-.5s.224-.5.5-.5h.5c.552 0 1 .448 1 1v2.375c0 .069.056.125.125.125h.375c.276 0 .5.224.5.5s-.224.5-.5.5z"/>
    </g>
</svg>
