<svg xmlns="http://www.w3.org/2000/svg" width="24" height="24" viewBox="0 0 24 24">
    <g fill="none" fill-rule="evenodd">
        <g fill="#25D366" fill-rule="nonzero">
            <g>
                <g>
                    <g>
                        <g>
                            <path d="M12 .09C5.408.09.05 5.408 0 12c-.003 2.423.745 4.788 2.14 6.77l-1.35 4c-.06.179-.013.376.12.51s.329.185.51.13l4.2-1.33c3.686 2.314 8.335 2.45 12.15.358C21.587 20.346 23.97 16.352 24 12 23.95 5.408 18.592.09 12 .09zm7.2 16.72c-.682 1.298-2.034 2.105-3.5 2.09-1.198-.137-2.364-.475-3.45-1-2.436-1.115-4.501-2.906-5.95-5.16-1.91-2.53-2-4.9-.16-6.86.497-.47 1.186-.677 1.86-.56.526.063.983.391 1.21.87l.38.92.63 1.51c.16.314.16.686 0 1-.255.509-.593.972-1 1.37.514.782 1.114 1.503 1.79 2.15.807.7 1.731 1.252 2.73 1.63.28-.36.83-1 1-1.27.277-.46.87-.62 1.34-.36.38.14 2.51 1.18 2.51 1.18.27.092.507.262.68.49.336.631.31 1.394-.07 2z" transform="translate(-1097 -2057) translate(0 1466) translate(120 32) translate(956 363) translate(21 196)"/>
                        </g>
                    </g>
                </g>
            </g>
        </g>
    </g>
</svg>
