<svg xmlns="http://www.w3.org/2000/svg" width="24" height="24" viewBox="0 0 24 24">
    <g fill="none" fill-rule="evenodd">
        <g>
            <g>
                <g>
                    <g fill="#484848">
                        <path d="M6.967 19.8l.12.006c.55.06.98.527.98 1.094 0 .607-.493 1.1-1.1 1.1-.608 0-1.1-.493-1.1-1.1 0-.608.492-1.1 1.1-1.1zm7.333 0c.608 0 1.1.492 1.1 1.1 0 .607-.492 1.1-1.1 1.1-.607 0-1.1-.493-1.1-1.1 0-.608.492-1.1 1.1-1.1zM21.267 0c.405 0 .733.328.733.733 0 .405-.328.734-.733.734h-.962c-.358 0-.664.258-.724.61l-2.578 15.157c-.18 1.058-1.096 1.832-2.169 1.832h-9.7c-.405 0-.734-.328-.734-.733 0-.405.329-.734.734-.734h9.7c.358 0 .663-.258.723-.61l.395-2.324H5.018c-1.617 0-3.035-1.058-3.505-2.59l-.051-.187L.044 6.217c-.11-.439-.011-.903.267-1.26.278-.355.705-.564 1.156-.563L17.7 4.393l.437-2.562c.17-1.002 1.002-1.749 2-1.825L20.306 0zm-5.065 13.198L17.45 5.86H1.467l1.417 5.672c.245.98 1.125 1.667 2.134 1.667l11.184-.001z" transform="translate(-1101 -36) translate(1089 24) translate(12 12) translate(1 1) matrix(-1 0 0 1 22 0)"/>
                    </g>
                </g>
            </g>
        </g>
    </g>
</svg>
