<svg xmlns="http://www.w3.org/2000/svg" width="24" height="24" viewBox="0 0 24 24">
    <g fill="none" fill-rule="evenodd">
        <g>
            <g>
                <g>
                    <g fill="#484848">
                        <path d="M18.524 0c.891-.002 1.7.522 2.07 1.357l2.39 5.832c.17.316.266.677.266 1.061v13.5c0 1.243-1.007 2.25-2.25 2.25H3C1.757 24 .75 22.993.75 21.75V8.25c0-.384.096-.745.265-1.06l2.4-5.853C3.777.522 4.585-.003 5.475 0zM21 7.5H3c-.414 0-.75.336-.75.75v13.5c0 .414.336.75.75.75h18c.414 0 .75-.336.75-.75V8.25c0-.414-.336-.75-.75-.75zM18.75 18c.414 0 .75.336.75.75s-.336.75-.75.75h-4.5c-.414 0-.75-.336-.75-.75s.336-.75.75-.75zm-7.5-16.5H5.473c-.297 0-.567.174-.679.425L3.125 6h8.125V1.5zm7.276 0H12.75V6h8.124l-1.66-4.055c-.105-.237-.324-.4-.578-.437l-.11-.008z" transform="translate(-1225 -35) translate(1213 24) translate(12 11)"/>
                    </g>
                </g>
            </g>
        </g>
    </g>
</svg>
